<?xml version="1.0" standalone="no"?>
<!DOCTYPE svg PUBLIC "-//W3C//DTD SVG 20010904//EN"
 "http://www.w3.org/TR/2001/REC-SVG-20010904/DTD/svg10.dtd">
<svg version="1.0" xmlns="http://www.w3.org/2000/svg"
 width="700.000000pt" height="700.000000pt" viewBox="0 0 700.000000 700.000000"
 preserveAspectRatio="xMidYMid meet">
<metadata>
Created by potrace 1.14, written by Peter Selinger 2001-2017
</metadata>
<g transform="translate(0.000000,700.000000) scale(0.100000,-0.100000)"
fill="#000000" stroke="none">
<path d="M2530 5325 c-520 -305 -945 -559 -945 -565 0 -10 542 -322 560 -323
6 0 310 176 678 391 l667 390 675 -384 c372 -211 677 -384 679 -384 14 0 558
328 557 335 -2 11 -1900 1095 -1916 1094 -5 0 -435 -250 -955 -554z"/>
<path d="M2818 4503 l-527 -308 -1 -617 c0 -340 3 -618 8 -618 4 1 243 139
532 309 l525 307 2 315 c2 173 -1 450 -5 617 l-7 302 -527 -307z"/>
<path d="M3633 4548 c4 -145 7 -421 7 -614 l0 -352 529 -301 c290 -165 531
-301 535 -301 3 0 5 276 4 613 l-3 612 -530 302 c-291 167 -534 303 -539 303
-6 0 -7 -107 -3 -262z"/>
<path d="M5280 4380 c-151 -89 -279 -165 -283 -169 -5 -5 -8 -359 -8 -787 l1
-779 -670 -390 -669 -390 -1 -332 c0 -183 2 -333 4 -333 3 0 434 251 958 558
l953 558 2 369 c2 204 -1 704 -5 1113 l-7 743 -275 -161z"/>
<path d="M1435 3408 c5 -801 10 -1106 19 -1115 6 -6 421 -244 921 -528 501
-284 929 -528 953 -541 l42 -25 -2 333 -3 332 -180 103 c-99 56 -400 228 -670
381 l-490 279 -6 99 c-4 54 -7 406 -8 780 l-1 682 -283 161 c-156 88 -287 161
-291 161 -4 0 -4 -496 -1 -1102z"/>
<path d="M2972 3030 c-287 -169 -525 -309 -528 -312 -5 -6 1049 -608 1065
-608 6 0 228 128 493 284 266 155 502 294 525 307 24 13 43 26 43 29 -1 5
-1055 603 -1069 606 -3 1 -241 -137 -529 -306z"/>
</g>
</svg>
